<svg width="34" height="33" fill="none" xmlns="http://www.w3.org/2000/svg"><g clip-path="url(#a)"><path d="M.96 12.973h33v7h-33v-7Z" fill="#E6E7E8"/><path d="M28.805 5.473H6.117c-3.417 0-5.156 2.462-5.156 5.5v2h33v-2c0-3.038-1.74-5.5-5.156-5.5ZM.96 21.973c0 3.037 1.74 5.5 5.156 5.5h22.688c3.417 0 5.156-2.463 5.156-5.5v-2h-33v2Z" fill="#74ACDF"/><path fill-rule="evenodd" clip-rule="evenodd" d="M17.811 14.422c.16-.193.176-.386.18-.59.005-.172.032-.345.063-.518a.385.385 0 0 1 .106-.178.172.172 0 0 1 .135-.037c.025.007.049.074.047.113-.004.069-.037.137-.042.205-.01.145-.01.287-.01.43-.002.144-.002.287-.002.448.107-.214.208-.42.312-.624.054-.114.115-.224.182-.33.027-.036.094-.046.142-.067.018.047.064.1.053.14-.061.211-.135.42-.208.628-.065.191-.134.379-.216.6.208-.112.3-.265.381-.432.09-.184.193-.364.311-.531.057-.079.161-.176.27-.086.03.023-.023.175-.073.24a1.416 1.416 0 0 0-.238.5c-.044.157-.157.298-.231.431.027-.02.075-.06.119-.1.212-.184.422-.37.635-.554a.838.838 0 0 1 .19-.13c.032-.015.096-.002.125.02.023.015.026.08.01.108a1.203 1.203 0 0 1-.152.208c-.245.266-.491.53-.761.817.258-.034.421-.157.577-.306.123-.118.266-.22.404-.322a.264.264 0 0 1 .143-.05c.07.003.138.031.206.05-.038.054-.06.13-.112.16a1.5 1.5 0 0 0-.509.452c-.078.112-.223.176-.361.28.298-.104.574-.2.851-.292.107-.035.218-.065.33-.083.033-.005.097.027.108.056.01.03-.01.094-.038.116-.073.054-.154.1-.239.137-.32.151-.641.297-.987.456.279.081.498-.015.725-.097a2.27 2.27 0 0 1 .555-.103c.055-.005.12.069.18.107-.054.04-.105.114-.164.119-.244.025-.45.12-.663.233-.14.075-.321.078-.485.115.387.02.774.042 1.16.065.005 0 .011 0 .016.002l.21.116c-.066.04-.133.112-.204.117-.35.031-.704.045-1.055.066-.053.002-.106.007-.194.014.25.179.498.164.753.172.183.003.37.065.548.12.046.014.07.097.102.148-.057.02-.115.055-.172.055-.075 0-.152-.031-.229-.044-.065-.01-.135-.031-.197-.02-.268.048-.531.085-.787-.062a.282.282 0 0 1-.008.038c.29.133.579.265.867.4.083.038.17.078.243.132.037.028.048.09.07.137-.048.019-.098.06-.142.054-.1-.013-.2-.047-.298-.08-.31-.103-.621-.21-.945-.322.083.196.24.294.55.412.147.054.283.146.407.24.079.06.197.163.108.263-.093.107-.198-.013-.277-.072a1.37 1.37 0 0 0-.486-.217c-.17-.047-.322-.161-.474-.245.2.215.411.44.62.667.065.072.134.142.182.224.027.042.01.109.012.163-.057-.004-.131.012-.17-.017-.156-.116-.301-.246-.45-.372-.18-.154-.357-.31-.557-.485.04.283.2.455.389.61.158.13.28.286.318.487.012.059-.025.125-.041.188-.057-.032-.139-.05-.166-.099-.12-.2-.285-.37-.484-.499-.112-.073-.178-.214-.276-.338.046.133.087.255.131.377.07.194.143.387.212.581.021.051.032.106.032.161-.003.043-.03.107-.062.116-.037.01-.1-.017-.128-.05-.052-.062-.088-.136-.123-.207-.156-.31-.309-.624-.475-.964-.075.23-.018.413.057.598.062.153.12.31.152.47.019.088-.011.19-.032.28-.008.028-.062.061-.093.06-.031 0-.088-.039-.09-.063-.023-.315-.18-.58-.314-.855-.05-.098-.033-.224-.069-.338-.015.302-.03.605-.047.907-.004.09-.002.183-.028.27-.017.056-.076.105-.117.156-.038-.052-.108-.102-.113-.158-.03-.335-.046-.67-.066-1.005-.003-.073 0-.147-.02-.224a.688.688 0 0 0-.174.46c0 .164.015.333-.008.495a.907.907 0 0 1-.133.316c-.02.036-.093.042-.143.06-.017-.042-.04-.084-.051-.13-.006-.027.007-.059.014-.088.053-.196.078-.387.021-.593-.032-.123-.005-.262-.005-.405-.116.235-.233.469-.349.7-.043.087-.085.175-.142.25-.028.036-.093.045-.14.065-.02-.046-.06-.097-.055-.14a1.57 1.57 0 0 1 .084-.29c.108-.301.22-.602.341-.938-.238.125-.321.312-.41.5a2.485 2.485 0 0 1-.283.462c-.058.078-.163.174-.271.086-.029-.021.024-.175.075-.243.115-.153.186-.314.236-.5.044-.157.159-.296.24-.44-.236.205-.477.419-.722.63-.069.06-.144.113-.224.16-.031.017-.098.011-.124-.01-.023-.023-.03-.09-.014-.12.037-.071.089-.135.142-.196.245-.265.493-.527.761-.816-.286.035-.444.193-.609.355a2.054 2.054 0 0 1-.402.297c-.087.054-.226.117-.292.004-.075-.13.085-.175.17-.221.163-.096.284-.223.397-.371.097-.127.249-.216.38-.324l-.84.284c-.079.027-.156.064-.236.072-.064.008-.133-.021-.199-.034.034-.06.054-.147.105-.175.263-.135.538-.258.808-.385l.326-.154c-.206-.076-.365-.05-.652.071-.137.057-.28.099-.427.126a.53.53 0 0 1-.244-.018c-.045-.012-.075-.069-.112-.104.037-.034.072-.093.113-.097.272-.03.513-.13.75-.264.12-.069.288-.062.472-.097-.354-.017-.67-.03-.986-.046a1.587 1.587 0 0 1-.31-.036c-.045-.01-.075-.069-.114-.104.038-.035.072-.092.116-.103.1-.024.205-.029.309-.034.33-.017.657-.031 1.028-.048-.24-.171-.47-.191-.71-.16a.9.9 0 0 1-.581-.118c-.052-.032-.075-.107-.111-.162.063-.018.133-.062.188-.05.22.053.45.063.673.029.183-.028.381.04.574.068-.28-.13-.569-.26-.854-.397a2.596 2.596 0 0 1-.31-.167c-.034-.022-.061-.092-.05-.125.01-.03.082-.063.122-.056.106.016.21.046.312.08.313.104.623.213.946.324-.08-.193-.239-.288-.55-.413-.166-.068-.31-.19-.46-.291a.224.224 0 0 1-.07-.115c-.01-.033-.007-.087.015-.109.021-.02.073-.014.112-.018.005 0 .01.001.014.005.295.313.802.244 1.1.562-.018-.026-.036-.054-.059-.078a108.35 108.35 0 0 1-.635-.683.6.6 0 0 1-.114-.159c-.016-.04-.018-.111.006-.134.028-.024.103-.023.14-.003a.883.883 0 0 1 .186.135c.269.233.537.47.832.726-.027-.248-.166-.392-.31-.544-.132-.14-.24-.305-.355-.463a.136.136 0 0 1-.024-.086c.009-.06.03-.117.047-.177.054.029.131.046.158.09.129.212.283.386.5.524.106.07.165.211.256.333-.011-.045-.016-.08-.03-.114-.09-.252-.184-.5-.275-.753-.022-.055-.054-.114-.054-.17-.001-.073.025-.146.04-.22.062.04.152.068.182.126.166.306.315.622.47.934l.085.162c.08-.25-.002-.448-.087-.654a2.438 2.438 0 0 1-.128-.46.436.436 0 0 1 .033-.221c.012-.03.065-.063.102-.067.027 0 .082.043.085.068.03.302.164.563.307.827.056.101.04.24.072.362l.068-1.111c0-.021-.004-.045.005-.06a3.19 3.19 0 0 1 .115-.161c.042.055.117.108.12.166.032.375.048.752.07 1.13l.016.11Zm-2.82 1.524c.145.012.296.012.44.047.132.032.255.105.386.147.064.022.138.014.207.02a3.078 3.078 0 0 0-.626-.238c-.126-.028-.271.014-.408.024l-.61-.141c.18.15.393.159.61.14Zm4.918 1.796c.14.1.285.196.421.3.03.023.038.076.056.115.021-.025.031-.06.017-.079-.117-.18-.272-.307-.5-.332-.197-.112-.418-.192-.557-.388a.816.816 0 0 0-.19-.176c-.05-.035-.115-.051-.174-.076.117.144.26.242.376.365.14.156.338.253.551.271Zm-4.553-2.794a1.058 1.058 0 0 1-.532-.4c-.046.152.308.427.536.396.02.025.042.051.066.071.15.11.302.217.45.33.076.059.14.133.22.188.04.029.1.032.15.044-.104-.12-.235-.2-.332-.306a.987.987 0 0 0-.558-.323ZM15 16.925c.25-.098.51-.112.775-.098a.83.83 0 0 0 .244-.037c.027-.008.045-.048.077-.085-.27.015-.514.01-.75.05-.122.019-.229.114-.344.174l-.567.096.008.037c.198.009.391-.004.557-.137Zm3.385.838a2.331 2.331 0 0 0-.102-.042.742.742 0 0 0-.034.025l.607 1.42.033-.01-.507-1.398c.108.144.248.275.318.436.11.255.344.357.55.5-.146-.165-.33-.306-.45-.484-.125-.181-.158-.42-.369-.59l-.046.142m-1.28-3.025c-.119-.225-.239-.452-.355-.68-.099-.193-.193-.389-.29-.582l-.035.015.615 1.434.062-.012v-.178l.098.12c0-.188.004-.378-.001-.567-.002-.078 0-.171-.04-.232-.155-.236-.216-.495-.241-.766 0-.005-.015-.008-.075-.042.041.182.041.344.11.47.188.327.183.67.151 1.02Zm-1.777 3.937c.019-.023.034-.048.056-.067.368-.323.738-.646 1.103-.971.037-.033.047-.097.07-.147-.05.02-.113.027-.148.06-.338.332-.674.665-1.008 1-.034.034-.048.083-.073.124-.105-.075-.027-.128.026-.18l.957-.946c.052-.05.096-.107.157-.177-.17.013-1.214 1.117-1.241 1.29l.101.013m2.79-.709c.124.236.247.47.37.709.103.203.202.408.304.613l.033-.015-.642-1.498a.568.568 0 0 0-.062.008v.188l-.126-.161c.014.276-.007.52.048.749.07.293.202.572.301.842a.619.619 0 0 0-.08-.43c-.192-.317-.177-.66-.146-1.005Zm.965-2.375-.046.127c.028.001.06.01.083.003.494-.203.988-.406 1.48-.61-.002-.01-.007-.018-.01-.028l-1.513.513c.148-.103.298-.207.444-.312.11-.079.245-.144.321-.248.112-.151.233-.276.402-.365.061-.031.113-.08.169-.123-.124.045-.24.106-.349.18-.088.06-.181.123-.244.205a.976.976 0 0 1-.444.334c-.157.06-.3.16-.447.242l.018.059.136.023Zm-2.922 1.505c-.154.107-.292.242-.46.318-.233.105-.354.286-.464.487.161-.133.297-.3.473-.406.184-.112.41-.159.578-.344l-.13-.052c.007-.043.017-.085.034-.16l-1.574.651c.005.01.01.02.013.03l1.53-.524Zm1.11.543c.369.112.369.112.675.005-.023.043-.04.077-.063.117.705-.066 1.275-.79 1.217-1.524-.063-.793-.762-1.376-1.604-1.337a1.47 1.47 0 0 0-1.387 1.487c.014.713.638 1.383 1.292 1.384l-.13-.132Zm1.776-.68-.023.053c.076.105 1.316.567 1.6.58l-1.577-.634Zm-1.39 2.57.023.001c.028-.519.056-1.039.076-1.558.003-.033-.04-.07-.064-.105a.35.35 0 0 1-.035.015v1.646Zm-.003-4.694c.112-.074.112-.074.072-.825-.013-.278-.033-.557-.05-.836l-.022.002v1.66Zm1.139-1.347a.163.163 0 0 0-.032-.014c-.047.092-.094.185-.14.279-.156.318-.314.633-.465.953-.035.068-.092.15.032.236l.605-1.454Zm-1.228 4.357c-.116.111-.093 1.327 0 1.683v-1.683Zm1.6-1.582a.95.95 0 0 0 .021.048h1.686a27.177 27.177 0 0 0-1.557-.107c-.049-.002-.099.04-.147.059m1.722.143h-1.708l.001.08c.57.01 1.138-.05 1.707-.08Zm-6.55-.036-.002.044c.25.013.5.03.75.042.269.014.537.031.806.038.045 0 .092-.043.138-.066-.042-.019-.084-.053-.124-.054-.523-.005-1.045-.004-1.569-.004Zm3.226-3.198-.021.005c-.029.505-.056 1.01-.082 1.515-.002.044.037.093.057.14a.554.554 0 0 1 .046-.015V13.17m-3.17 3.118h1.669c-.127-.096-1.401-.065-1.67 0Zm5.478-2.192-.023-.022-1.14 1.01a.136.136 0 0 0-.044.06c-.006.026.002.054.004.08.027-.006.06-.005.078-.02.048-.037.088-.084.131-.126.33-.328.662-.655.994-.983m-1.94.749.08.03c.023-.042.052-.082.065-.126.045-.173.085-.347.127-.521.017-.068.058-.142.042-.203a1.522 1.522 0 0 1 .04-.814c.005-.02-.02-.046-.035-.076-.026.122-.054.22-.068.321-.02.132-.05.269-.036.398a1 1 0 0 1-.077.526c-.063.148-.094.308-.138.465Zm-.836 2.933a1.087 1.087 0 0 0-.07-.006l-.57 1.375.036.015c.201-.41.404-.822.6-1.236.021-.04.004-.098.004-.148Zm-1.35 1.245v.051c.044-.016.11-.017.134-.048.107-.137.229-.274.298-.43.098-.215.197-.417.394-.567.083-.064.15-.151.214-.235.024-.033.018-.088.024-.132a2.46 2.46 0 0 0-.378.395c-.093.123-.2.251-.235.392-.055.232-.227.38-.354.56-.013.016-.063.011-.098.014Zm-.397-4.957-.027.031c.125.115.25.23.373.346.25.241.498.485.751.724.026.024.074.026.112.039-.013-.038-.016-.083-.038-.115-.026-.038-.067-.063-.1-.094-.285-.25-.57-.5-.855-.748l-.216-.183Zm4.521 4.565c.01-.01.019-.02.026-.03-.369-.358-.74-.715-1.111-1.072-.029-.028-.083-.031-.123-.045.015.043.02.098.051.127.136.13.28.254.42.379.246.216.493.428.737.641Zm-4.577-4.442-.007.003.258.278c.246.263.491.53.741.789.037.037.097.05.146.076l.014-.038c-.383-.37-.77-.74-1.152-1.108Zm-.671.923c.515.204 1.03.41 1.577.628-.061-.155-1.167-.583-1.578-.628Zm4.14.19.062.06c.407-.377.76-.806 1.144-1.204l.03.03c-.413.371-.824.742-1.236 1.115Zm.367.647a.629.629 0 0 1 .02.041c.195-.012.39-.012.582-.04.144-.02.283-.075.424-.117.132-.04.26-.085.393-.121.078-.021.16-.03.241-.041a1.234 1.234 0 0 1-.017-.067c-.161.04-.331.06-.481.122-.227.096-.45.174-.704.144a.957.957 0 0 0-.264.005c-.067.01-.13.048-.194.074Zm-.74-.928.06.028c.06-.077.11-.166.181-.233.226-.21.385-.443.47-.744a.782.782 0 0 1 .372-.439c-.052.008-.12.016-.149.054-.101.13-.21.26-.276.409-.095.209-.184.414-.38.557-.07.053-.131.114-.185.183-.04.054-.063.123-.093.185Zm-2.055-1.572a.2.2 0 0 1-.033.013c.179.48.356.96.54 1.438.011.032.065.048.097.073l.034-.03-.638-1.494Zm-.21 2.406.009-.066-1.468-.586c.432.24.878.447 1.325.649.039.017.09.003.134.003Zm.204 3.49c.014-.057.027-.13.054-.198.173-.424.35-.846.525-1.27.018-.047.03-.095.054-.17-.172.104-.677 1.493-.633 1.637Zm4.312-4.139-.021-.032-1.535.637a1.3 1.3 0 0 1 .038.082c.515-.207 1.012-.46 1.518-.687Zm-.083 2.28.01-.028c-.442-.206-.885-.41-1.328-.612-.042-.019-.1-.003-.15-.003l-.01.05c.492.2.985.397 1.478.593Zm-2.296-2.532c.14-.044.632-1.29.646-1.561l-.646 1.561Zm-3.614 2.505a.596.596 0 0 0 .021.034l1.46-.607a.862.862 0 0 1-.033-.076c-.497.187-.962.442-1.448.65Zm4.55-.917.005.025c.208.074.412.158.624.22.1.029.215.03.319.016.284-.036.536.035.79.156-.03-.042-.063-.095-.106-.107-.162-.042-.33-.103-.493-.095-.26.01-.504-.001-.736-.128a1.057 1.057 0 0 0-.247-.085c-.05-.013-.104-.002-.156-.002Zm.595 1.778a.049.049 0 0 1-.01.015c-.291-.31-.58-.621-.874-.93-.028-.03-.079-.038-.119-.057l-.009.023c.336.317.675.633 1.012.95Zm.765-1.457c-.257 0-.494.026-.721-.009-.23-.034-.433-.204-.706-.163.022.041.032.085.05.086.448.044.876.298 1.377.086Zm-4.494-.83.032-.07c-.054-.026-.106-.06-.163-.074-.13-.03-.273-.024-.392-.074-.265-.114-.516-.068-.781.03.47-.17.865.148 1.304.188Zm-.098-2.09a.523.523 0 0 0-.035.026c.084.084.158.179.254.249a.87.87 0 0 1 .305.386 2.6 2.6 0 0 0 .2.37c.02.03.078.037.118.054-.01-.044-.008-.098-.032-.13-.25-.335-.428-.726-.81-.955Zm1.294 3.885c-.183.102-.296.938-.18 1.28.01-.21-.02-.428.017-.632.04-.212.192-.399.163-.648Zm1.653-.618c-.02.021-.038.044-.057.067.177.132.344.281.535.392.199.115.421.194.634.288l.029-.06c-.075-.031-.144-.08-.22-.094a.994.994 0 0 1-.552-.311c-.105-.11-.244-.19-.369-.282Zm-.701 1.976c-.019-.07-.02-.177-.073-.248-.167-.227-.193-.477-.186-.745.003-.113-.039-.225-.066-.37-.051.048-.079.063-.077.073.098.446.062.93.402 1.29Zm-1.14.297c.016.002.03.005.045.01.03-.158.094-.318.08-.471-.026-.285.005-.548.147-.8a.707.707 0 0 0 .067-.198c.01-.046-.006-.096-.01-.145-.105.24-.236.474-.25.716-.015.291.008.584-.092.868-.001.004.01.014.014.02Zm-.057-5.99c.018.067.018.183.075.262.164.23.19.48.183.747-.002.113.04.225.062.337l.061.015c.01-.018.024-.038.02-.055-.09-.458-.083-.943-.401-1.307Zm-1.838 1.313c.09.032.185.056.27.097.149.074.295.15.434.24.118.079.22.182.334.266.032.022.088.016.133.022-.03-.04-.05-.091-.09-.118-.074-.052-.175-.076-.235-.138a1.148 1.148 0 0 0-.846-.369Zm3.993 1.28.016.073c.47-.089.969-.066 1.364-.395-.084.023-.196.032-.276.084-.211.146-.44.18-.69.175-.138-.002-.278.04-.414.062Zm-.653-.991c.025.018.053.034.076.052.194-.395.646-.646.625-1.173-.035.08-.085.149-.097.223-.038.226-.163.394-.33.549-.107.1-.184.232-.274.349Zm-3.825 1.828c.063-.018.165-.022.236-.07.22-.148.456-.19.718-.183.133.004.27-.043.406-.068-.008-.024-.011-.046-.018-.07-.465.101-.968.061-1.342.39Zm2.01.675-.077-.049c-.185.395-.638.645-.617 1.17.034-.075.08-.135.09-.2.037-.246.176-.428.356-.595.1-.093.166-.216.248-.326Zm-.067-2.461.047-.037c-.248-.248-.218-.67-.57-.842.084.137.18.282.262.432.053.097.081.206.134.302.028.055.083.097.127.145Zm1.149-.33c.026.008.054.014.082.023.006-.34.313-.616.216-.935-.059.167-.132.368-.199.57-.037.112-.066.227-.1.342Zm-2.295 2.957c.168-.082.345-.167.521-.255.088-.043.177-.082.26-.134.031-.018.047-.063.069-.095l-.03-.029c-.235.244-.65.214-.82.513m3.375-2.378.045.06c.232-.246.643-.219.813-.494-.192.086-.414.183-.63.288-.082.039-.153.097-.228.146Zm.224 3.03c-.082-.137-.164-.266-.236-.402-.055-.102-.089-.215-.143-.316-.027-.05-.083-.086-.124-.128l-.04.032c.247.233.218.632.543.814Zm-3.67-.526c-.203.112-.362.266-.593.285.135.08.396-.042.593-.285Zm3.895.671-.04.023c.068.115.136.23.203.347l.048-.03-.211-.34Zm-3.562-4.806a.976.976 0 0 1-.048.029l.208.35.041-.02-.201-.359Z" fill="#7B4022"/><path fill-rule="evenodd" clip-rule="evenodd" d="m17.271 17.637.13.132c-.654-.001-1.278-.671-1.292-1.384a1.472 1.472 0 0 1 1.387-1.487c.842-.04 1.541.543 1.604 1.336.058.734-.513 1.459-1.217 1.525.023-.04.04-.075.063-.118-.306.108-.306.108-.675-.004Zm.63-1.135a.681.681 0 0 1-.019.045c.013.007.029.012.037.021l.094.112c-.046.009-.094.02-.141.027-.027.004-.065-.01-.08.002-.138.123-.262.083-.388.01a7.04 7.04 0 0 1-.186-.028l.118-.185c-.06.016-.133.018-.17.052-.032.03-.05.112-.03.145.03.048.094.082.151.104.042.015.093.003.14.003l.01.042c-.058.017-.117.05-.175.047-.087-.003-.171 0-.171.1.001.085.064.141.166.141.24-.002.48 0 .72-.002.02 0 .049.003.06-.008.037-.046.083-.093.098-.146.004-.019-.072-.072-.117-.085-.082-.022-.167-.028-.251-.039l.001-.042c.05-.004.103.001.151-.012.058-.018.135-.04.165-.083.024-.037.014-.125-.017-.162-.034-.038-.109-.041-.166-.06Zm-1.188-.73c.48-.13.677-.1.695.107-.249-.1-.487-.136-.703.085.22.217.462.178.713.099-.17.15-.372.143-.582.132.092.042.19.08.286.076.097-.003.193-.05.304-.08v.31c.094-.152.118-.622.044-.746a.201.201 0 0 0-.06-.067c-.164-.128-.565-.133-.697.084Zm1.805.191c-.217-.223-.458-.18-.725-.08.045-.196.198-.188.317-.19.127 0 .254.042.416.072a.546.546 0 0 0-.537-.15c-.2.044-.27.116-.274.308-.004.155.01.312.018.467.003.033.026.066.04.098l.034-.007v-.302c.206.092.393.154.618-.016-.248.046-.449.046-.618-.1.25.084.49.115.711-.1Zm-1.151 1.44h.5c-.07-.032-.122-.058-.173-.082a.403.403 0 0 0-.002-.037c.088 0 .174-.007.26.001.111.014.15-.002.181-.088h-1.041a.43.43 0 0 0 .194.083c.09.01.182.002.274.002 0 .013 0 .026-.002.039-.059.024-.117.05-.19.082m-1.207-.311-1.529.525-.013-.03c.513-.212 1.023-.425 1.574-.652-.018.075-.027.117-.035.16l.003-.003Zm2.888-.135 1.577.634c-.284-.013-1.524-.475-1.6-.58l.023-.054Zm.036-1.37-.135-.022-.017-.06c.147-.081.29-.18.447-.241a.966.966 0 0 0 .444-.334c.062-.082.156-.144.244-.204.104-.073.22-.134.348-.181-.056.042-.108.092-.169.123-.168.089-.29.214-.401.365-.077.104-.211.17-.321.248-.147.105-.297.209-.444.312l.004-.006Z" fill="#FDD12E"/><path fill-rule="evenodd" clip-rule="evenodd" d="M19.08 15.592c.504-.172 1.008-.343 1.513-.513.003.01.008.018.01.028l-1.48.61c-.023.008-.055-.002-.084-.003l.046-.127-.005.005Zm-1.422 3.935V17.88a.755.755 0 0 0 .035-.016c.023.036.067.072.064.106-.02.519-.048 1.039-.076 1.558l-.023-.002Zm-.004-4.693v-1.66l.022-.002c.017.28.037.558.051.836.04.75.04.75-.073.826Zm1.14-1.347-.605 1.453c-.124-.086-.068-.168-.033-.236.151-.32.31-.636.466-.953l.14-.28.032.016Zm-1.23 4.356v1.684c-.092-.356-.115-1.572 0-1.684Zm1.604-1.582c.049-.02.098-.06.146-.058.521.023 1.042.052 1.558.106h-1.686l-.02-.048m1.723.144c-.57.03-1.138.09-1.707.079l-.001-.08h1.708Zm-6.551-.036c.523 0 1.045-.001 1.568.003.04.001.082.036.124.055-.046.023-.093.066-.138.065-.27-.006-.537-.023-.805-.038-.251-.012-.502-.028-.751-.042a.3.3 0 0 0 .002-.043Zm3.226-3.198v1.646a.66.66 0 0 0-.046.014c-.02-.047-.058-.095-.057-.14.026-.506.053-1.011.083-1.515l.02-.004m-3.17 3.117c.268-.065 1.542-.096 1.669 0h-1.67Zm5.478-2.192-.993.984c-.043.042-.083.088-.13.126-.02.015-.052.014-.08.02-.001-.026-.009-.055-.003-.08a.135.135 0 0 1 .044-.06c.38-.338.76-.675 1.14-1.01l.022.02m-1.75 3.871v-.188a.78.78 0 0 1 .061-.009l.642 1.499-.034.014c-.102-.204-.2-.41-.304-.613-.121-.238-.246-.472-.369-.708l.003.005Zm-2.793.705c.024-.042.04-.092.072-.124.334-.336.67-.671 1.009-1 .034-.034.097-.04.148-.061-.023.05-.033.114-.07.147-.365.325-.735.648-1.103.97-.022.02-.037.045-.056.068v.001-.001Zm2.603-3.828c.045-.157.076-.317.139-.465a.994.994 0 0 0 .076-.526c-.013-.13.018-.266.037-.398.014-.1.041-.199.068-.321.015.03.04.056.035.075a1.52 1.52 0 0 0-.04.814c.015.061-.026.136-.042.203-.043.174-.083.349-.127.522-.013.044-.043.084-.065.126l-.08-.03Zm-.832-.114v.178l-.062.013c-.204-.479-.41-.957-.614-1.434a.204.204 0 0 1 .035-.016c.097.194.19.39.29.583.116.228.236.454.354.68l-.003-.004Z" fill="#FDD12E"/><path fill-rule="evenodd" clip-rule="evenodd" d="M15.33 18.673a1.844 1.844 0 0 0-.102-.012c.028-.173 1.072-1.278 1.242-1.29-.061.07-.106.126-.157.177l-.958.945c-.052.053-.13.106-.025.181Zm1.766-.893c0 .05.017.109-.002.149-.197.414-.4.824-.6 1.235l-.036-.014.569-1.376a.83.83 0 0 1 .069.006Zm-1.349 1.243c.034-.003.084.003.097-.014.127-.18.3-.328.355-.56.034-.14.142-.269.234-.392.105-.14.23-.267.379-.395-.007.044 0 .1-.024.133-.064.083-.131.17-.215.235-.197.15-.295.352-.393.567-.07.156-.192.292-.299.43-.024.03-.089.031-.134.048v-.052Zm-.396-4.955.215.183c.285.248.57.498.854.748.033.03.075.056.101.094.022.032.025.077.038.115-.038-.013-.086-.015-.112-.04-.253-.239-.5-.482-.752-.723a20.636 20.636 0 0 0-.372-.346l.028-.03Zm4.52 4.565c-.244-.214-.49-.425-.737-.64-.14-.125-.284-.25-.42-.38-.031-.029-.036-.083-.051-.127.04.014.095.017.123.046.372.356.743.713 1.111 1.07a.203.203 0 0 1-.025.031Zm-4.577-4.442 1.153 1.108a.581.581 0 0 0-.014.038c-.05-.026-.11-.04-.146-.076-.25-.26-.495-.526-.741-.789-.088-.093-.172-.185-.258-.278l.006-.003Zm-.671.922c.411.045 1.516.473 1.577.628-.547-.218-1.062-.424-1.577-.628Zm4.139.192 1.236-1.115-.03-.03c-.385.398-.737.827-1.145 1.205l-.061-.06Zm.366.646c.064-.026.126-.064.194-.074a1.06 1.06 0 0 1 .264-.005c.253.03.477-.048.704-.144.15-.062.32-.082.48-.122l.018.067c-.081.012-.163.02-.24.04-.133.037-.262.083-.394.122-.141.042-.28.096-.424.116-.192.029-.387.029-.582.041a.477.477 0 0 0-.02-.04Zm-.74-.928c.031-.062.054-.13.094-.184a.957.957 0 0 1 .185-.183c.196-.143.285-.348.38-.557.066-.149.174-.28.276-.41.028-.037.097-.046.149-.053a.784.784 0 0 0-.373.44 1.566 1.566 0 0 1-.469.743c-.072.067-.121.156-.181.233l-.06-.029Zm-2.054-1.572.638 1.493-.034.031c-.033-.025-.086-.04-.098-.073-.183-.478-.36-.958-.539-1.438a.22.22 0 0 0 .033-.013Zm-.21 2.406c-.045 0-.096.014-.133-.003-.448-.202-.894-.41-1.326-.65l1.468.587a1.53 1.53 0 0 0-.009.066Zm.204 3.49c-.044-.145.461-1.534.633-1.638-.024.075-.035.123-.054.17-.175.424-.352.846-.525 1.27-.027.068-.04.14-.054.197Zm4.31-4.139c-.507.226-1.002.48-1.518.687a1.3 1.3 0 0 0-.037-.082l1.534-.637.021.032Zm-3.532-.472c.032-.35.037-.693-.15-1.02-.069-.126-.069-.288-.11-.47.06.034.075.037.075.042.025.27.086.53.241.766.04.06.038.154.04.232.005.19.001.379.001.567l-.097-.117Zm1.016 3.229c-.032.345-.047.687.145 1.005a.617.617 0 0 1 .08.43c-.1-.271-.23-.55-.301-.843-.054-.229-.034-.473-.048-.75l.126.162-.002-.004Zm.261-.208.507 1.399-.033.01c-.201-.474-.404-.947-.607-1.42a.722.722 0 0 1 .035-.025c.034.013.067.027.1.042l-.002-.006Zm2.173-.269c-.493-.196-.985-.394-1.478-.592l.01-.05c.051 0 .109-.016.15.003.444.2.886.406 1.33.611l-.012.028Zm-2.295-2.532.646-1.561c-.014.27-.507 1.517-.646 1.561Z" fill="#FDD12E"/><path fill-rule="evenodd" clip-rule="evenodd" d="m18.385 17.763.047-.142c.21.17.244.409.368.59.122.178.305.32.45.485-.205-.144-.44-.246-.55-.5-.07-.161-.209-.292-.317-.436l.002.004m-3.739-.302c.487-.208.952-.463 1.448-.65.01.027.022.053.034.077l-1.46.606-.021-.033Zm4.553-.919c.052 0 .107-.01.157.003.084.02.17.045.247.085.231.126.475.137.735.127.163-.007.331.054.493.096.044.011.076.064.106.106-.254-.12-.506-.191-.79-.156a.851.851 0 0 1-.319-.015c-.212-.062-.416-.147-.623-.22l-.006-.026Zm.593 1.78c-.336-.316-.676-.633-1.012-.95l.008-.022c.04.019.092.027.12.057.293.308.582.62.873.93a.053.053 0 0 0 .01-.015Z" fill="#FDD12E"/><path fill-rule="evenodd" clip-rule="evenodd" d="M20.555 16.865c-.502.212-.93-.042-1.379-.085-.016-.001-.027-.045-.05-.087.274-.04.476.13.706.164.229.035.466.008.723.008Zm-4.491-.827c-.439-.04-.833-.358-1.304-.188.263-.097.515-.144.78-.03.12.05.263.045.393.074.058.014.109.048.163.073a1.703 1.703 0 0 0-.032.071Zm.094 1.06.13.052c-.168.185-.394.233-.577.344-.176.107-.312.273-.474.406.111-.2.231-.382.465-.487.167-.076.306-.21.46-.32l-.004.005Zm-.192-3.153c.382.23.56.62.81.955.024.033.021.087.032.13-.04-.016-.1-.023-.119-.054a2.47 2.47 0 0 1-.2-.37.854.854 0 0 0-.305-.385c-.096-.07-.17-.165-.254-.249l.036-.027Zm1.293 3.885c.028.25-.123.437-.163.649-.037.204-.008.421-.017.63-.117-.34-.004-1.177.18-1.279Zm1.653-.618c.124.093.264.174.369.282a.997.997 0 0 0 .552.312c.075.013.145.062.22.094l-.03.06c-.212-.095-.435-.173-.633-.289-.192-.11-.359-.26-.536-.391l.058-.068Zm-.702 1.977c-.34-.36-.304-.844-.401-1.291-.002-.01.026-.025.076-.073.028.145.07.258.067.37-.008.268.018.518.186.745.053.071.054.179.072.249Z" fill="#FDD12E"/><path fill-rule="evenodd" clip-rule="evenodd" d="M17.07 19.482c-.004-.006-.015-.016-.013-.02.1-.284.076-.577.092-.868.013-.241.145-.475.25-.716.003.049.018.1.01.145a.688.688 0 0 1-.067.198c-.143.252-.173.514-.147.8.013.154-.052.313-.08.47a1.08 1.08 0 0 0-.045-.009Zm-.057-5.99c.318.364.311.849.402 1.307.003.017-.012.037-.021.055l-.061-.015c-.022-.112-.064-.224-.062-.337.008-.267-.019-.517-.183-.747-.058-.079-.058-.195-.075-.263Zm-1.837 1.316c.34.002.617.134.847.368.06.062.16.087.235.138.04.028.06.078.09.119-.045-.007-.102 0-.133-.022-.115-.085-.216-.188-.334-.266a4.151 4.151 0 0 0-.434-.24c-.085-.042-.18-.066-.27-.097Zm-.174 2.12c.116-.06.222-.156.343-.175.237-.038.481-.034.75-.05-.031.038-.05.078-.076.085a.85.85 0 0 1-.243.038c-.266-.014-.526 0-.776.098l.002.004Zm4.166-.84c.137-.024.276-.066.414-.063.251.005.48-.03.69-.175.08-.052.192-.06.277-.084-.396.329-.894.306-1.365.395a1.698 1.698 0 0 1-.016-.074Zm-.65-.99c.09-.117.168-.25.276-.35.165-.154.29-.322.328-.548.012-.074.062-.142.098-.223.02.527-.431.778-.626 1.173-.023-.018-.05-.035-.075-.053Z" fill="#FDD12E"/><path fill-rule="evenodd" clip-rule="evenodd" d="M14.691 16.925c.374-.33.877-.29 1.342-.39.007.023.01.046.018.07-.135.024-.272.072-.406.067-.262-.007-.498.035-.718.184-.07.047-.172.051-.236.069Zm2.01.673c-.081.11-.147.233-.247.326-.18.167-.32.349-.356.595-.01.065-.056.125-.091.2-.02-.526.432-.775.617-1.17l.077.049Zm-1.343-2.652c.224.046.404.156.556.325.097.106.227.186.333.305-.052-.011-.11-.015-.151-.043-.079-.056-.143-.13-.22-.189-.147-.113-.3-.219-.45-.33-.024-.02-.045-.046-.065-.07l-.003.001Zm4.55 2.796a.824.824 0 0 1-.549-.271c-.116-.123-.26-.221-.376-.366.06.026.124.041.174.077.07.051.142.107.19.176.14.196.36.276.557.387l.005-.003Zm-3.274-2.603c-.044-.047-.098-.09-.128-.144-.052-.096-.08-.205-.133-.302-.083-.15-.178-.295-.262-.432.352.171.322.594.57.842l-.047.036Zm1.15-.33c.033-.114.061-.23.099-.343.066-.201.14-.402.199-.57.097.32-.21.595-.216.935a2.714 2.714 0 0 0-.083-.021Zm-2.297 2.958c.17-.3.586-.27.82-.513l.03.028c-.022.033-.037.078-.069.096-.082.052-.172.091-.26.134-.176.087-.354.172-.521.255Zm-.495-1.822c.136-.01.281-.052.408-.024.213.048.416.14.626.24-.07-.007-.143.001-.207-.021-.132-.043-.255-.115-.387-.147-.143-.034-.294-.034-.44-.048Zm3.872-.556c.075-.05.146-.108.228-.146.216-.106.438-.203.63-.289-.17.276-.581.248-.813.493l-.045-.058Zm.222 3.029c-.325-.183-.296-.582-.543-.814l.04-.032c.04.042.096.078.123.128.054.1.088.213.143.316.073.135.155.264.237.402Z" fill="#FDD12E"/><path fill-rule="evenodd" clip-rule="evenodd" d="M15.36 14.943c-.228.031-.582-.244-.536-.397.129.185.305.322.532.4l.004-.003Zm.06 2.947c-.198.243-.46.366-.594.287.23-.02.39-.174.593-.287Zm4.483-.145c.228.025.383.153.5.332.014.02.005.054-.017.08-.018-.04-.025-.094-.055-.115-.137-.105-.28-.201-.422-.3l-.006.003Zm-4.901-.82c-.165.132-.359.145-.557.136l-.008-.038.567-.095-.002-.004Zm-.01-.98c-.218.018-.43.01-.611-.141.203.047.407.095.61.14Zm4.32 2.617.211.34c-.016.011-.032.02-.049.03a30.88 30.88 0 0 0-.203-.347l.04-.023Zm-3.562-4.806.202.358-.041.02-.209-.35.048-.028Z" fill="#FDD12E"/><path fill-rule="evenodd" clip-rule="evenodd" d="M17.9 16.502c.059.018.133.021.167.059.032.037.041.124.017.162-.03.043-.106.064-.165.082-.048.014-.1.009-.15.012l-.002.043c.084.01.17.016.25.038.047.014.122.067.118.086-.015.052-.06.1-.098.145-.01.011-.04.009-.06.009-.24 0-.48 0-.72.002-.101 0-.165-.057-.166-.141 0-.1.084-.103.171-.1.057.002.117-.03.176-.048l-.01-.042c-.048 0-.099.013-.14-.003-.058-.021-.122-.056-.15-.103-.022-.034-.004-.116.029-.145.036-.035.108-.036.17-.053l-.118.185c.061.01.123.02.185.028.126.073.25.114.388-.01.015-.012.054.002.08-.002.048-.006.096-.018.141-.026a3.705 3.705 0 0 0-.094-.112c-.008-.01-.024-.015-.037-.021a.656.656 0 0 0 .019-.045Zm-.5.455V17h.427v-.044H17.4Zm-.687-1.184c.132-.217.533-.212.696-.084.025.018.046.04.06.067.075.124.05.594-.044.747v-.31c-.11.03-.206.076-.304.08a.665.665 0 0 1-.285-.077c.21.01.412.017.582-.132-.25.079-.494.118-.713-.1.216-.22.454-.184.702-.084-.018-.207-.214-.237-.694-.107Zm.501.188c-.058-.04-.098-.09-.124-.082-.037.01-.066.058-.097.09.032.026.064.068.097.07.032.003.067-.038.124-.078Zm1.304.003c-.222.215-.46.184-.711.1.17.146.37.146.618.1-.226.17-.413.108-.618.016v.302l-.035.006c-.013-.032-.036-.065-.039-.097-.01-.155-.023-.312-.018-.467.004-.193.075-.264.273-.309a.546.546 0 0 1 .538.15c-.162-.03-.289-.07-.416-.07-.12 0-.273-.007-.317.189.267-.1.508-.143.725.08Zm-.424.129.069-.036c.02-.033.064-.071.058-.1-.008-.031-.056-.055-.087-.083-.03.033-.079.062-.085.1-.006.036.028.08.045.119Zm-.727 1.31.19-.081a.243.243 0 0 0 .001-.04c-.09 0-.183.01-.273-.001a.419.419 0 0 1-.195-.083h1.042c-.032.086-.07.102-.18.088-.087-.008-.173 0-.262 0a.368.368 0 0 1 .003.036l.172.082h-.499" fill="#7B4022"/><path fill-rule="evenodd" clip-rule="evenodd" d="M17.401 16.96h.427v.044h-.427v-.045Zm-.186-.997c-.057.039-.092.08-.123.078-.033-.003-.065-.045-.098-.071.032-.032.06-.079.098-.09.025-.007.065.042.123.083Zm.881.13c-.017-.039-.052-.082-.045-.119.007-.037.055-.066.086-.099.03.027.079.052.087.083.005.029-.038.066-.059.1l-.069.035Z" fill="#FDD12E"/></g><defs><clipPath id="a"><path fill="#fff" transform="translate(.96 .473)" d="M0 0h33v32H0z"/></clipPath></defs></svg>