<svg width="34" height="33" fill="none" xmlns="http://www.w3.org/2000/svg"><g clip-path="url(#a)"><path d="M28.344 5.623H17V7.98l-2.38 1.143H17v3.5h-2.38L17 13.82v2.303h-.099l-6.604-3.175v3.175H7.203v-3.175L.621 16.123H.5v6c0 3.037 1.74 5.5 5.156 5.5h22.688c3.417 0 5.156-2.463 5.156-5.5v-11c0-3.037-1.74-5.5-5.156-5.5Z" fill="#2B3990"/><path d="M17 6.794v-.013L12.27 9.122 17 6.794Z" fill="#4189DD"/><path d="M.5 12.623v1.216l2.416-1.216H.5Zm.625-4.36a5.398 5.398 0 0 0-.34.86h2.131l-1.791-.86ZM17 5.628v-.005h-6.703v3.35L17 5.628ZM7.203 8.973v-3.35H5.656c-1.35 0-2.435.39-3.257 1.043l4.804 2.307Z" fill="#2B3990"/><path d="M17 9.623v-.5h-2.38L17 7.98V6.795l-4.728 2.328h-1.567L17 6.007v-.379l-6.703 3.345v-3.35H9.78v4H17Zm-7.219 6.5h.516v-3.175l6.604 3.175H17v-1.14l-4.728-2.36h1.567L17 14.208v-.388l-2.38-1.197H17v-.5H9.781v4Zm-2.578-3.175v3.175h.516v-4H.5v.5h2.416L.5 13.839v1.149l4.765-2.365h1.568L.5 15.763v.36h.12l6.583-3.175ZM2.4 6.668c-.272.216-.514.46-.727.73l3.593 1.728H3.698l-2.42-1.151a5.433 5.433 0 0 0-.153.29l1.791.86H.786a6 6 0 0 0-.129.5H7.72v-4h-.516v3.35L2.4 6.668Z" fill="#fff"/><path d="M7.719 16.123H9.78v-4H17V9.79l-7.219.333v-4.5H7.72v4.5L.618 9.828A7.279 7.279 0 0 0 .5 11.123v1h7.219v4Z" fill="red"/><path d="M9.78 10.122 17 9.79v-.167H9.78v.5ZM.618 9.827l7.101.295v-.5H.657a5.396 5.396 0 0 0-.04.205Zm4.648-.705L1.668 7.398a4.99 4.99 0 0 0-.391.573l2.421 1.151h1.567ZM1.671 7.394l-.003.004 3.597 1.724-3.594-1.728Zm10.6 1.728L17 6.782v-.776l-6.295 3.116h1.566Zm0 3.5L17 14.963v-.756l-3.162-1.585h-1.567ZM17 14.983v-.019l-4.728-2.341L17 14.983Zm-11.735-2.36L.5 15v.763l6.333-3.14H5.265ZM.5 14.988v.011l4.765-2.376L.5 14.988Z" fill="red"/><path d="m8.102 20.802.648-1.919.634 1.92 1.925-.72-1.138 1.67 1.791 1.024-2.073.175.282 1.998-1.42-1.457-1.43 1.457.276-1.997-2.058-.165 1.776-1.03-1.144-1.675 1.93.72Zm16.61.674.254-.758.252.758.759-.284-.448.66.708.405-.817.07.11.788-.564-.575-.562.575.108-.787-.813-.07.7-.405-.448-.66.761.283Zm-4.362-6.675.256-.758.25.758.76-.284-.45.66.709.405-.82.07.111.789-.56-.576-.566.575.11-.788-.813-.067.702-.408-.45-.66.76.284Zm8.241-1.119.255-.758.25.758.761-.284-.451.66.711.405-.821.069.11.789-.56-.573-.565.573.109-.789-.815-.066.704-.405-.453-.663.765.284Zm-1.753 3.242.124-.378.127.378.378-.142-.223.33.352.203-.407.034.055.393-.282-.286-.28.287.054-.394-.409-.033.354-.203-.225-.33.382.141Zm-2.126-6.726.254-.759.252.758.759-.284-.448.661.708.405-.817.069.11.789-.564-.576-.562.576.108-.79-.813-.066.7-.405-.448-.663.761.284Z" fill="#fff"/></g><defs><clipPath id="a"><path fill="#fff" transform="translate(.5 .123)" d="M0 0h33v32H0z"/></clipPath></defs></svg>