<svg xmlns="http://www.w3.org/2000/svg" width="33" height="33" fill="none"><path fill="#002b7f" d="M33 24.75a3.667 3.667 0 0 1-3.667 3.667H3.667A3.667 3.667 0 0 1 0 24.751V8.25a3.667 3.667 0 0 1 3.667-3.667h25.666A3.667 3.667 0 0 1 33 8.251z"/><path fill="#eee" d="M0 8.25h33v16.5H0z"/><path fill="#ce1225" d="M0 11.916h33v9.167H0z"/><path fill="#eee" d="M7.792 20.167c1.772 0 3.209-1.641 3.209-3.666s-1.437-3.667-3.209-3.667-3.208 1.642-3.208 3.667 1.436 3.666 3.208 3.666"/><path fill="#f4cb58" d="M9.413 17.875c0 .759-.726 1.906-1.621 1.906-.896 0-1.622-1.147-1.622-1.906S6.896 16.5 7.792 16.5c.895 0 1.621.615 1.621 1.375"/><path fill="#dca841" d="M7.792 19.25c1.265 0 2.291-.616 2.291-1.375 0-.76-1.026-1.375-2.291-1.375-1.266 0-2.292.616-2.292 1.375 0 .76 1.026 1.375 2.292 1.375"/><path fill="#89c5e4" d="M7.791 15.583c.76 0 1.375-.41 1.375-.916 0-.507-.616-.917-1.375-.917-.76 0-1.375.41-1.375.917 0 .506.616.916 1.375.916"/><path fill="#088930" d="M7.791 19.25c.76 0 1.375-1.027 1.375-2.292 0-1.266-.616-2.292-1.375-2.292-.76 0-1.375 1.026-1.375 2.292s.616 2.291 1.375 2.291"/><path fill="#dca841" d="M7.791 15.583c.76 0 1.375-.206 1.375-.459s-.616-.458-1.375-.458c-.76 0-1.375.205-1.375.458s.616.459 1.375.459"/><path fill="#89c5e4" d="M9.166 16.5c0 1.012-.615 1.834-1.375 1.834s-1.375-.822-1.375-1.834.615-1.373 1.375-1.373 1.375.361 1.375 1.373"/><path fill="#dca841" d="M7.791 17.417c.76 0 1.375-.206 1.375-.459S8.55 16.5 7.791 16.5c-.76 0-1.375.205-1.375.458 0 .254.616.459 1.375.459"/></svg>