<svg width="22" height="25" fill="none" xmlns="http://www.w3.org/2000/svg"><path d="M9.848 10.73a2.118 2.118 0 1 0 2.118 3.67 2.118 2.118 0 0 0-2.118-3.67Zm9.496 2.299a13.41 13.41 0 0 0-.44-.478c.107-.114.212-.227.313-.34 1.904-2.14 2.708-4.288 1.963-5.577-.714-1.237-2.839-1.606-5.5-1.089-.261.051-.522.11-.781.173-.05-.17-.102-.34-.158-.51-.903-2.72-2.36-4.488-3.85-4.487-1.429 0-2.81 1.657-3.69 4.22-.088.253-.168.508-.242.764a14.642 14.642 0 0 0-.521-.118C3.63 5.01 1.37 5.39.628 6.683-.087 7.92.658 9.945 2.44 11.988c.177.201.359.399.546.593-.221.226-.429.452-.623.677-1.738 2.014-2.44 4.005-1.729 5.237.736 1.274 2.964 1.69 5.677 1.157.22-.044.438-.093.656-.147.079.277.166.553.262.826.878 2.512 2.25 4.114 3.673 4.114 1.471 0 2.945-1.723 3.838-4.34.07-.207.137-.421.2-.642.281.07.564.131.849.185 2.613.495 4.688.107 5.398-1.127.734-1.275-.024-3.413-1.843-5.492ZM1.505 7.188c.458-.795 2.305-1.106 4.728-.607.155.031.313.067.474.106a24.316 24.316 0 0 0-.5 3.177 24.902 24.902 0 0 0-2.495 2.007c-.174-.18-.342-.363-.507-.551-1.527-1.749-2.13-3.386-1.7-4.132Zm4.611 6.795a22.759 22.759 0 0 1-1.68-1.401c.51-.47 1.074-.937 1.679-1.395a29.377 29.377 0 0 0 .001 2.796Zm0 4.674a8.54 8.54 0 0 1-3.132.111 2.098 2.098 0 0 1-1.472-.78c-.433-.747.132-2.346 1.618-4.068.187-.216.38-.426.58-.631.787.726 1.622 1.4 2.499 2.016a24.91 24.91 0 0 0 .505 3.217c-.198.05-.397.095-.6.136m8.423-9.536a34.627 34.627 0 0 0-2.426-1.395 22.535 22.535 0 0 1 2.063-.754c.158.71.279 1.427.363 2.149ZM8.16 5.27c.754-2.195 1.872-3.535 2.733-3.535.917-.001 2.108 1.445 2.887 3.792.05.154.098.308.143.463a24.322 24.322 0 0 0-2.997 1.15 23.724 23.724 0 0 0-2.99-1.163c.07-.237.144-.473.224-.707Zm-.475 1.69c.697.218 1.382.472 2.053.76-.832.43-1.642.896-2.43 1.402.095-.757.222-1.482.377-2.163Zm-.376 9.086c.393.252.792.494 1.197.727.413.237.831.465 1.254.683a21.34 21.34 0 0 1-2.069.789 22.545 22.545 0 0 1-.382-2.198m6.472 3.732a8.54 8.54 0 0 1-1.468 2.767 2.1 2.1 0 0 1-1.41.887c-.864 0-1.966-1.287-2.716-3.435-.088-.254-.17-.51-.244-.769 1.026-.33 2.029-.73 3.001-1.198.98.453 1.99.84 3.021 1.162-.057.197-.118.392-.184.586Zm.43-1.57a22.561 22.561 0 0 1-2.09-.767 34.247 34.247 0 0 0 2.44-1.414 21.33 21.33 0 0 1-.35 2.18Zm.53-5.627c0 .72-.022 1.44-.067 2.159-.586.397-1.201.781-1.844 1.153a33.7 33.7 0 0 1-1.894 1.015 28.592 28.592 0 0 1-3.756-2.162 28.17 28.17 0 0 1-.002-4.322 28.476 28.476 0 0 1 3.746-2.162 33.37 33.37 0 0 1 3.74 2.147c.051.723.077 1.447.077 2.172Zm1.134-6.042c2.28-.442 3.998-.144 4.428.602.46.795-.198 2.548-1.843 4.396-.091.102-.185.204-.282.307a23.731 23.731 0 0 0-2.544-2.002 23.742 23.742 0 0 0-.48-3.143c.245-.06.486-.113.721-.16Zm-.154 4.609c.602.439 1.181.91 1.734 1.41-.55.507-1.127.985-1.728 1.432.018-.47.027-.94.027-1.41 0-.477-.01-.954-.033-1.432Zm4.59 6.867c-.432.748-2.098 1.06-4.334.638a13.679 13.679 0 0 1-.787-.173c.224-1.049.378-2.112.459-3.182.89-.619 1.737-1.299 2.535-2.034.14.145.272.289.398.432a8.54 8.54 0 0 1 1.664 2.655 2.1 2.1 0 0 1 .065 1.664Z" fill="#000"/></svg>