<svg width="22" height="24" viewBox="0 0 22 24" fill="none" xmlns="http://www.w3.org/2000/svg">
<path d="M10.9993 0.945312C5.03018 0.945312 0.166016 5.99656 0.166016 12.1953C0.166016 18.3941 5.03018 23.4453 10.9993 23.4453C16.9685 23.4453 21.8327 18.3941 21.8327 12.1953C21.8327 5.99656 16.9685 0.945312 10.9993 0.945312ZM1.26018 12.1953C1.26018 10.7328 1.56352 9.33781 2.10518 8.07781L6.75268 21.2966C3.50268 19.6541 1.26018 16.2003 1.26018 12.1953ZM10.9993 22.3091C10.046 22.3091 9.12518 22.1628 8.24768 21.8928L11.1727 13.0728L14.1627 21.5891C14.1843 21.6341 14.206 21.6903 14.2277 21.7241C13.2202 22.1066 12.1368 22.3091 10.9993 22.3091ZM12.3427 7.44781C12.9277 7.41406 13.4585 7.34656 13.4585 7.34656C13.9785 7.27906 13.9243 6.48031 13.3935 6.51406C13.3935 6.51406 11.8118 6.63781 10.7935 6.63781C9.84018 6.63781 8.22601 6.51406 8.22601 6.51406C7.70601 6.49156 7.64102 7.32406 8.17185 7.35781C8.17185 7.35781 8.67018 7.42531 9.19018 7.45906L10.7068 11.7791L8.57268 18.4166L5.03018 7.44781C5.61518 7.42531 6.14602 7.35781 6.14602 7.35781C6.66602 7.29031 6.61185 6.49156 6.08102 6.52531C6.08102 6.52531 4.49935 6.64906 3.48102 6.64906C3.29685 6.64906 3.08018 6.64906 2.85268 6.63781C4.60768 3.89281 7.59768 2.08156 10.9993 2.08156C13.5343 2.08156 15.8418 3.08281 17.5752 4.73656C17.5318 4.73656 17.4885 4.72531 17.4452 4.72531C16.4918 4.72531 15.8093 5.59156 15.8093 6.52531C15.8093 7.35781 16.2752 8.06656 16.7627 8.89906C17.131 9.57406 17.5643 10.4403 17.5643 11.6891C17.5643 12.5553 17.2393 13.5566 16.8277 14.9628L15.8527 18.3378L12.3427 7.44781ZM19.5468 7.34656C20.7631 9.65928 21.0621 12.3736 20.3802 14.9118C19.6984 17.45 18.0895 19.6117 15.896 20.9366L18.8752 12.0041C19.4277 10.5641 19.6118 9.40531 19.6118 8.38156C19.6118 8.01031 19.5902 7.66156 19.5468 7.34656Z" fill="black"/>
</svg>
