<svg width="21" height="22" fill="none" xmlns="http://www.w3.org/2000/svg"><path d="M6.09.905h8.82c3.36 0 6.09 2.663 6.09 5.94v8.605a5.868 5.868 0 0 1-1.784 4.201 6.168 6.168 0 0 1-4.306 1.74H6.09c-3.36 0-6.09-2.663-6.09-5.94V6.845C0 5.27.642 3.759 1.784 2.645A6.168 6.168 0 0 1 6.09.905Zm-.21 2.048a3.829 3.829 0 0 0-2.673 1.08A3.642 3.642 0 0 0 2.1 6.641v9.014c0 2.039 1.69 3.688 3.78 3.688h9.24a3.829 3.829 0 0 0 2.673-1.08 3.642 3.642 0 0 0 1.107-2.608V6.641c0-2.038-1.69-3.688-3.78-3.688H5.88ZM16.013 4.49c.348 0 .681.135.928.375.246.24.384.566.384.905 0 .34-.138.666-.384.906a1.33 1.33 0 0 1-.928.375 1.33 1.33 0 0 1-.929-.375 1.265 1.265 0 0 1-.384-.906c0-.34.138-.665.384-.905.247-.24.58-.375.928-.375ZM10.5 6.026c1.392 0 2.728.54 3.712 1.5a5.059 5.059 0 0 1 1.538 3.622 5.059 5.059 0 0 1-1.538 3.622c-.984.96-2.32 1.5-3.712 1.5a5.317 5.317 0 0 1-3.712-1.5 5.06 5.06 0 0 1-1.538-3.622 5.06 5.06 0 0 1 1.538-3.622c.984-.96 2.32-1.5 3.712-1.5Zm0 2.049a3.19 3.19 0 0 0-2.227.9 3.036 3.036 0 0 0-.923 2.173c0 .815.332 1.597.923 2.173.59.576 1.392.9 2.227.9a3.19 3.19 0 0 0 2.227-.9c.591-.576.923-1.358.923-2.173s-.332-1.597-.923-2.173a3.19 3.19 0 0 0-2.227-.9Z" fill="url(#a)"/><defs><linearGradient id="a" x1="0" y1="11.636" x2="21" y2="11.636" gradientUnits="userSpaceOnUse"><stop stop-color="#9747FF"/><stop offset=".271" stop-color="#C88BC4"/><stop offset=".531" stop-color="#7B8FDD"/><stop offset=".771" stop-color="#86BFF2"/><stop offset="1" stop-color="#09F4F4"/></linearGradient></defs></svg>