<svg width="24" height="28" fill="none" xmlns="http://www.w3.org/2000/svg"><path d="M12 14c.825 0 1.531-.274 2.12-.823.587-.548.88-1.207.88-1.977s-.293-1.43-.88-1.978C13.532 8.674 12.825 8.4 12 8.4c-.825 0-1.531.274-2.118.822C9.294 9.77 9 10.43 9 11.2s.294 1.429.882 1.977c.587.549 1.293.823 2.118.823Zm0 14c-4.025-3.197-7.031-6.166-9.018-8.908C.994 16.35 0 13.813 0 11.48c0-3.5 1.206-6.288 3.62-8.365C6.031 1.038 8.825 0 12 0c3.175 0 5.968 1.038 8.38 3.115C22.795 5.192 24 7.98 24 11.48c0 2.333-.994 4.87-2.98 7.612C19.032 21.834 16.024 24.803 12 28Z" fill="#031728"/></svg>