<svg width="20" height="20" viewBox="0 0 20 20" fill="none" xmlns="http://www.w3.org/2000/svg">
<path d="M14.6171 10C16.1187 9.70302 17.5962 8.96912 18.4977 8.0047L19.5212 6.90981L18.0496 6.62558C16.7534 6.37521 15.1267 6.65 13.7373 7.29237C14.7776 6.16944 15.5416 4.70726 15.704 3.39716L15.8885 1.90981L14.5309 2.54484C13.3351 3.10419 12.1806 4.2826 11.434 5.61898C11.6156 4.09907 11.3743 2.46707 10.7356 1.31167L10.0106 0L9.28553 1.31167C8.64688 2.46707 8.40554 4.09907 8.58712 5.61898C7.8406 4.2826 6.68609 3.10414 5.49028 2.54484L4.1327 1.90981L4.31712 3.39716C4.47958 4.70726 5.24358 6.16944 6.28386 7.29237C4.89446 6.65 3.26772 6.37526 1.97153 6.62558L0.5 6.90981L1.52344 8.0047C2.42493 8.96912 3.90242 9.70298 5.40409 10C3.90247 10.297 2.42493 11.0308 1.52344 11.9953L0.5 13.0902L1.97153 13.3744C3.26772 13.6248 4.89442 13.35 6.28386 12.7076C5.24358 13.8306 4.47958 15.2927 4.31712 16.6028L4.1327 18.0901L5.49023 17.4552C6.68605 16.8958 7.84056 15.7174 8.58707 14.381C8.40549 15.9009 8.64684 17.5329 9.28549 18.6883L10.0105 20L10.7355 18.6883C11.3742 17.5329 11.6155 15.9009 11.434 14.381C12.1805 15.7174 13.335 16.8959 14.5308 17.4552L15.8883 18.0901L15.7039 16.6028C15.5414 15.2927 14.7774 13.8306 13.7372 12.7076C15.1266 13.35 16.7533 13.6247 18.0495 13.3744L19.521 13.0902L18.4976 11.9953C17.5962 11.0309 16.1187 10.297 14.6171 10Z" fill="url(#paint0_linear_2453_633)"/>
<defs>
<linearGradient id="paint0_linear_2453_633" x1="0.5" y1="10.4762" x2="19.5212" y2="10.4762" gradientUnits="userSpaceOnUse">
<stop stop-color="#9747FF"/>
<stop offset="0.270833" stop-color="#C88BC4"/>
<stop offset="0.53125" stop-color="#7B8FDD"/>
<stop offset="0.770833" stop-color="#86BFF2"/>
<stop offset="1" stop-color="#09F4F4"/>
</linearGradient>
</defs>
</svg>
