<svg width="24" height="24" fill="none" xmlns="http://www.w3.org/2000/svg"><g clip-path="url(#a)"><path fill-rule="evenodd" clip-rule="evenodd" d="M2.828.766a2.617 2.617 0 0 1 3.915.245L9.435 4.47c.494.634.668 1.46.473 2.24l-.82 3.286a1.017 1.017 0 0 0 .266.964l3.686 3.686a1.017 1.017 0 0 0 .966.267l3.283-.82a2.617 2.617 0 0 1 2.241.472l3.46 2.69a2.617 2.617 0 0 1 .244 3.917l-1.551 1.551c-1.11 1.11-2.77 1.598-4.316 1.053a27.95 27.95 0 0 1-10.515-6.63A27.95 27.95 0 0 1 .222 6.633C-.32 5.088.167 3.427 1.277 2.317l1.55-1.55Z" fill="#031728"/></g><defs><clipPath id="a"><path fill="#fff" d="M0 0h24v24H0z"/></clipPath></defs></svg>